<?xml version="1.0" standalone="no"?>
<svg width="160" height="160"
     xmlns="http://www.w3.org/2000/svg" version="1.1">
  <g transform="translate(80.0, 80.0)">
    <circle id="o" cx="0" cy="0" r="73.0"
            stroke="black" stroke-width="14" fill="none" />
    <path id="m" d="
      M -22.73 53.36
      A 58.0 58.0 0 0 1 -22.73 -53.36
      L -2.314894481454836 -18.0
      H 2.314894481454836
      L 22.73 -53.36
      A 58.0 58.0 0 0 1 22.73 53.36
      L 15.66 41.12
      A 44.0 44.0 0 0 0 27.78 -34.12
      L 10.390209892008475 -4.0
      H -10.390209892008475
      L -27.78 -34.12
      A 44.0 44.0 0 0 0 -15.66 41.12
      Z"
      stroke="black" stroke-width="0" fill="black" />
    <path id="w" d="
      M -11.59 34.08
      A 36.0 36.0 0 0 1 -29.35 -20.84
      L -22.35 -8.715644347017857
      A 22.0 22.0 0 0 0 -16.49 14.56
      L -10.39318115735755 4.0
      L 10.39318115735755 4.0
      L 16.49 14.56
      A 22.0 22.0 0 0 0 22.35 -8.715644347017857
      L 29.35 -20.84
      A 36.0 36.0 0 0 1 11.59 34.08
      L 2.306207671430819 18.0
      L -2.306207671430819 18.0
      Z"
      stroke="black" stroke-width="0" fill="black"/>
  </g>
</svg>
